<svg data-name="Layer 1" xmlns="http://www.w3.org/2000/svg" width="356.379" height="159.646" viewBox="0 0 356.379 159.646"><path d="M93.438 12.774Q77.754-.186 56.344.003 32.865.192 16.434 16.53-.005 32.87 0 56.347q0 23.48 16.433 39.816 16.433 16.342 39.911 16.53 21.596.183 37-12.77l.564-.565v13.335a28.218 28.218 0 0 1-28.173 28.173H37.563v18.78h28.172a45.278 45.278 0 0 0 33.244-13.71 45.279 45.279 0 0 0 13.71-33.243v-62.45c0-16.938-8.797-28.83-19.25-37.469zm.47 50.728c0 10.5-6.92 18.078-13.617 23.085q-10.05 7.514-23.947 7.324a37.021 37.021 0 0 1-26.575-11.08 37.409 37.409 0 0 1 0-52.965 37.042 37.042 0 0 1 26.575-11.082q13.9-.185 23.947 7.325c6.697 5.01 13.617 14.18 13.617 24.135zM142.503 98.418v53.48h-18.782v-95.55q0-23.476 16.435-39.91Q156.588.004 180.067.002q23.475 0 39.91 16.434t16.433 39.91q0 23.48-16.434 39.912-16.437 16.438-39.909 16.434a54.518 54.518 0 0 1-37.564-14.274zm75.126-42.07a37.197 37.197 0 0 0-37.562-37.563 37.202 37.202 0 0 0-37.564 37.563 37.202 37.202 0 0 0 37.564 37.564 37.198 37.198 0 0 0 37.562-37.564z" fill="#0c98e4"/><path fill="#ff9327" d="M268.317 125.409l31.252-32.444 31.251 32.444h-62.503z"/><path d="M269.026 103.607l13.362-13.873a37.433 37.433 0 0 1-9.022-6.717 36.26 36.26 0 0 1-10.894-26.67 37.563 37.563 0 1 1 75.125 0 36.275 36.275 0 0 1-10.891 26.67 37.256 37.256 0 0 1-9.667 7.02l13.43 13.94a58.789 58.789 0 0 0 9.476-7.717q16.432-16.435 16.434-39.913 0-23.475-16.434-39.91Q323.508.005 300.035.003q-23.48 0-39.911 16.434-16.437 16.436-16.434 39.91 0 23.481 16.434 39.913a58.96 58.96 0 0 0 8.901 7.347z" fill="#0c98e4"/></svg>